<svg width="40" height="40" viewBox="0 0 40 40" fill="none" xmlns="http://www.w3.org/2000/svg">
<path d="M30.2522 5.1048C27.8759 3.41984 22.3231 -0.312557 19.4771 0.0209609C17.274 0.279206 13.6987 2.3359 11.7611 3.52985C8.63936 5.45453 1.15469 10.7839 0.181357 14.346C-0.675726 17.4832 1.72114 25.0024 2.86202 28.1882C3.70657 30.5529 6.16612 36.928 8.14129 38.2262C11.3998 40.3686 22.0119 40.1532 25.9417 39.7073C27.8645 39.4896 31.2666 39.0553 32.5442 37.4989C34.3929 35.2465 36.4022 29.7782 37.3995 26.9143C38.3774 24.1049 40.5896 17.3083 39.8522 14.5742C39.1228 11.8713 32.6217 6.78629 30.2522 5.1048Z" fill="#DF4960"/>
</svg>
