<svg width="9" height="93" viewBox="0 0 9 93" fill="none" xmlns="http://www.w3.org/2000/svg">
<path d="M0.140625 -5.68248e-07L8.625 -1.97384e-07L8.625 1.28906L1.25391 1.28906L1.25391 5.12109L0.140625 5.12109L0.140625 -5.68248e-07ZM8.625 7.43437L0.140625 7.43437L0.140625 6.14531L8.625 6.14531L8.625 7.43437ZM8.625 9.60703L1.72266 11.9625L1.72266 12.0562L8.625 14.4117L8.625 15.8062L0.140624 12.7477L0.140624 11.2594L8.625 8.2125L8.625 9.60703ZM0.140624 16.5844L8.625 16.5844L8.625 21.9047L7.51172 21.9047L7.51172 17.8734L4.94531 17.8734L4.94531 21.6234L3.84375 21.6234L3.84375 17.8734L1.25391 17.8734L1.25391 21.9516L0.140624 21.9516L0.140624 16.5844ZM5.85937 31.5586C6.94922 31.3477 7.55859 30.4453 7.55859 29.3672C7.55859 27.9023 6.43359 26.8125 4.38281 26.8125C2.32031 26.8125 1.20703 27.9141 1.20703 29.3672C1.20703 30.4336 1.80469 31.3359 2.88281 31.5586L2.87109 32.8594C1.19531 32.5898 0.0234361 31.2187 0.0234362 29.3555C0.0234363 27.1406 1.67578 25.5352 4.38281 25.5352C7.10156 25.5352 8.74219 27.1523 8.74219 29.3555C8.74219 31.1484 7.6875 32.5664 5.85937 32.8594L5.85937 31.5586ZM0.140623 33.9539L8.625 33.9539L8.625 35.243L1.2539 35.243L1.2539 39.075L0.140623 39.075L0.140623 33.9539ZM8.625 45.5484L8.625 46.8375L3.04687 46.8375C1.26562 46.8375 -2.02684e-06 45.5016 -1.93822e-06 43.4742C-1.84858e-06 41.4234 1.26562 40.0992 3.04687 40.0992L8.625 40.0992L8.625 41.3883L3.15234 41.3883C2.0039 41.3883 1.17187 42.1852 1.17187 43.4742C1.17187 44.7516 2.0039 45.5484 3.15234 45.5484L8.625 45.5484ZM0.140623 48.2719L8.625 48.2719L8.625 51.3773C8.625 53.182 7.65234 54.0609 6.39844 54.0609C5.34375 54.0609 4.80469 53.4164 4.60547 52.6312L4.52344 52.6312C4.47656 53.475 3.73828 54.3891 2.42578 54.3891C1.125 54.3891 0.140623 53.4984 0.140623 51.518L0.140623 48.2719ZM1.24219 51.4008C1.24219 52.6195 1.78125 53.1117 2.48437 53.1117C3.29297 53.1117 3.94922 52.4672 3.94922 51.4477L3.94922 49.5609L1.24219 49.5609L1.24219 51.4008ZM4.95703 51.2719C4.95703 52.1273 5.48437 52.7953 6.29297 52.7953C6.99609 52.7953 7.52344 52.3148 7.52344 51.2953L7.52344 49.5609L4.95703 49.5609L4.95703 51.2719ZM0.140622 58.1016L8.625 58.1016L8.625 61.125C8.625 63.0937 7.4414 64.0664 5.87109 64.0664C4.3125 64.0664 3.11718 63.0937 3.11718 61.125L3.11718 59.3906L0.140622 59.3906L0.140622 58.1016ZM4.21875 59.3906L4.21875 60.9961C4.21875 62.25 4.92187 62.7656 5.87109 62.7656C6.83203 62.7656 7.52343 62.25 7.52343 60.9961L7.52343 59.3906L4.21875 59.3906ZM0.140622 64.95L0.140622 63.5789L8.625 66.6258L8.625 68.1141L0.140622 71.1727L0.140622 69.8016L2.3789 69.0281L2.3789 65.7234L0.140622 64.95ZM3.45703 66.0984L3.45703 68.6531L7.07812 67.3992L7.07812 67.3406L3.45703 66.0984ZM0.140622 71.9508L8.625 71.9508L8.625 74.9742C8.625 76.943 7.52343 77.9156 5.96484 77.9156C4.82226 77.9156 3.95507 77.4 3.57422 76.3688L0.140622 78.2438L0.140622 76.7789L3.33984 75.0563L3.33984 74.9742L3.33984 73.2398L0.140622 73.2398L0.140622 71.9508ZM4.45312 73.2398L4.45312 74.8453C4.45312 76.0992 5.0039 76.6148 5.96484 76.6148C6.92578 76.6148 7.52343 76.0992 7.52343 74.8453L7.52343 73.2398L4.45312 73.2398ZM7.51172 78.6234L8.625 78.6234L8.625 85.1977L7.51171 85.1977L7.51172 82.5609L0.140621 82.5609L0.140621 81.2719L7.51172 81.2719L7.51172 78.6234ZM8.625 85.5539L8.625 87.0188L4.78125 89.2219L4.78125 89.3156L8.625 91.5305L8.625 92.9953L3.46875 89.9133L0.140621 89.9133L0.140621 88.6242L3.46875 88.6242L8.625 85.5539Z" fill="white"/>
</svg>
