<?xml version="1.0" encoding="UTF-8"?>
<svg id="Layer_1" xmlns="http://www.w3.org/2000/svg" version="1.1" viewBox="0 0 234.91 109.72">
  <!-- Generator: Adobe Illustrator 30.1.0, SVG Export Plug-In . SVG Version: 2.1.1 Build 136)  -->
  <defs>
    <style>
      .st0 {
        fill: #f0af02;
      }

      .st1 {
        fill: #f5b300;
      }

      .st2 {
        fill: #f5b301;
      }

      .st3 {
        fill: #f1b002;
      }

      .st4 {
        fill: #f4b201;
      }

      .st5 {
        fill: #f6b300;
      }

      .st6 {
        fill: #f2b002;
      }
    </style>
  </defs>
  <g>
    <path class="st4" d="M65.03,15.85c-2.26.97-1.5,6.3-3.94,6.77-3.31.64-2.8-4.85-4.84-6.41-1.72-1.31-6.51.84-7.4-1.55-1.05-2.82,3.16-3.66,4.45-6.08,1.15-2.16-2.7-6.22-.29-8,2.14-1.57,5.09,2.88,7.31,2.58s5.12-4.71,7.35-2.6c1.75,1.65-1.4,5.43-.57,7.42.96,2.32,5.54,3.05,5.09,5.8s-5.18,1.21-7.16,2.06Z"/>
    <path class="st2" d="M50.11,25.13c-11.09-8.19-26.02-8.26-37.15-.17C2.39,32.62-2.82,46.64,1.55,59.51c1.61,4.74,4.02,8.85,6.52,13.2l20.29,35.28c.64,1.12,1.91,1.64,2.82,1.72,1.16.1,2.52-.51,3.22-1.71l9.13-16.15c4.33-5.89,7.5-12.6,11.36-19.13,2.59-4.39,4.93-8.7,6.52-13.64,4.02-12.47-.94-26.31-11.3-33.95ZM50.41,49.57l-6.04,4.4c-1.06.77-1.72,1.97-1.34,3.34l2.4,8.51c.38,1.34-.25,2.68-.96,3.33-4.75,4.33-10.45-7.59-14.92-4.38l-6.08,4.36c-1.31.94-2.71,1.24-4.09.76-1.18-1.13-2.66-1.95-1.99-4.26l2.32-8c.42-1.47-.12-2.78-1.31-3.66l-6.28-4.66c-1.3-.96-1.63-2.47-1.17-3.97.34-1.14,1.53-2.26,3.14-2.34l8.49-.43c5.28-.27,2.97-13.57,10.03-11.78,1.13.28,2.17,1.78,2.65,3.17,2.6,7.53,1.74,8.33,6.49,8.61,9.64.56,7.94-.04,10.33,3.34.06,1.37-.4,2.73-1.68,3.66Z"/>
  </g>
  <g>
    <path class="st6" d="M180.74,106.43c-1.47,2.51-4.13,3.25-6.48,3.25s-4.97-.82-6.38-3.17c-2.23-3.72-2.43-8.96.09-12.75,2.82-4.22,9.79-4.23,12.63,0,2.48,3.69,2.37,8.88.14,12.68ZM178.17,96.28c-.6-1.87-2.19-2.94-3.91-2.93s-3.3,1.12-3.88,3.01c-1.05,3.4-1.05,10.51,3.87,10.62s5.05-7.16,3.91-10.7Z"/>
    <path class="st4" d="M150.86,109.07c-1.21.41-2.31.27-3.5.08l-.09-8.08c-2.37-.23-4.56-.06-7.04-.04l-.12,8.08c-1.09.29-2.17.29-3.5.06l.02-17.98c1.31-.23,2.38-.21,3.46.06l.15,6.81c2.31.27,4.4.09,6.88.1l.25-6.98c1.14-.21,2.23-.21,3.43.02l.04,17.87Z"/>
    <path class="st0" d="M201.22,109.24c-1.21.08-2.32.13-3.5-.06v-17.23c2.16-.89,4.43-1.44,6.78-1.22,4.1.39,6.3,4.11,5.6,7.81s-4.42,5.85-8.64,4.87c-.55,1.99-.07,3.82-.24,5.83ZM205.66,100.06c1.55-1.61,1.48-4.6-.1-6.05-.93-.85-3.5-.98-4.12-.07-.56,2.06-.06,4.52-.2,6.59,1.44.42,3.22.78,4.42-.47Z"/>
    <path class="st3" d="M121.18,105.75c-1.02,5.05-8.48,4.49-11.5,2.64-.41-.25.08-1.97.58-1.91,2.29.24,6.39,1.58,7.26-1.24.28-.92.15-2.13-.84-2.73l-4.82-2.91c-1.94-1.17-2.63-3.22-2.15-5.43.99-4.5,7.73-3.97,10.57-2.52.44.23.16,1.9-.33,1.99-1.66.07-3.74-.63-5.42-.14-1.01.3-1.28,1.33-1.22,2.17.24,3.24,9.2,3.47,7.87,10.08Z"/>
    <g>
      <path class="st2" d="M122.16,67.53c-1.58,12.94-15.58,14.99-25.72,12.92-3.45-.7-6.62-1.71-9.98-3,.29-2.24.79-4.29,1.41-6.4,6.8,1.14,19.29,5,22.63-2.55,1.27-2.86,1.06-6.55-1.49-8.64-8.58-7.04-23.08-9.12-22.34-22.85.32-5.86,3.74-10.69,9.44-12.51,7.99-2.55,15.85-.69,23.82,1.75-.23,2.3-.61,4.38-1.1,6.51-4.96-.4-16.32-3.32-19.48.58-2.83,3.49-1.6,8.29,2,10.65,8.24,5.42,22.49,9.71,20.8,23.51Z"/>
      <path class="st1" d="M163.26,67.28c.05-6.59,3.9-11.5,10.09-13.07,4.99-1.27,10.1-.81,15.06,1.01.48-1.86.26-3.79-.53-5.56-2.59-5.82-13.26-2.68-18.67-2.81l-.97-6.73c7-1.61,15.23-2.9,22.15-.25,4.95,1.9,8.4,6.35,8.41,11.79l.05,25.43c-8.25,2.66-17.68,5.28-25.9,3.17-6.03-1.59-9.75-6.61-9.71-12.98ZM188.56,72.2l-.03-9.91c-3.35-.65-6.66-1.12-10-.88-3.01.21-4.72,2.39-4.94,5.23-.24,3.14,1.43,5.78,4.72,6.32s6.81.07,10.24-.76Z"/>
      <path class="st4" d="M156.06,71.75l1.56,7.38c-4.65,1.93-9.57,2.65-14.5,1.72-5.3-1-9.06-5.07-9.09-10.59l-.15-22.68-7.05-.12c-.3-2.42-.1-4.94-.11-7.68l7.16-.25.06-8.28,10.24-3.12.19,11.44,11.4.09.03,7.77-11.49.16.05,21.46c.01,5.3,8.04,3.29,11.7,2.71Z"/>
      <path class="st5" d="M219.23,79.83h-10.32s-.02-40.11-.02-40.11c2.53.02,5.08-.3,7.63.1,1.05.41,1.05,2.29,1.62,3.44,5.61-4.38,9.85-4.62,16.77-4.25l-.05,8.02c-5.08.08-11.17-.29-15.54,2.48l-.09,30.32Z"/>
    </g>
  </g>
</svg>