<?xml version="1.0" encoding="UTF-8"?>
<svg id="Layer_1" xmlns="http://www.w3.org/2000/svg" version="1.1" viewBox="0 0 529.38 119.06">
  <!-- Generator: Adobe Illustrator 30.1.0, SVG Export Plug-In . SVG Version: 2.1.1 Build 136)  -->
  <defs>
    <style>
      .st0 {
        fill: #231f20;
        fill-rule: evenodd;
      }
    </style>
  </defs>
  <path class="st0" d="M58.9,105.29c-24.36-2.14-43.65-21.93-45.01-46.5-1.08.03-2.16.11-3.22.11h-3.33c1.43,28.17,23.67,50.83,51.65,52.95-.06-2.18-.15-4.38-.09-6.56h0Z"/>
  <path class="st0" d="M95.04,9.87C86.02,3.65,75.08,0,63.29,0,35.25,0,12.02,20.61,7.92,47.51c1.18-.81,2.39-1.55,3.72-2.1,1.19-.49,2.41-.91,3.63-1.33C20.61,22.52,40.08,6.54,63.29,6.54c7.61,0,14.82,1.73,21.26,4.8,3.46-.86,6.9-1.3,10.48-1.46h0Z"/>
  <path class="st0" d="M108.63,23.13c-.26,2.9-.96,5.61-2.45,8.22,4.18,7.26,6.59,15.68,6.59,24.66,0,23.22-16,42.69-37.57,48.02.02,2.23.03,4.46.05,6.7,25.18-5.48,44.05-27.89,44.05-54.72,0-12.29-3.96-23.65-10.68-32.88h0Z"/>
  <path class="st0" d="M0,55.34L100.12,12.16s5.37-1.17,6.07-.47c.7.7,0,7.47,0,7.47l-43.18,99.89-.47-62.79-62.55-.93h0Z"/>
  <path class="st0" d="M322.82,17.37c-2.23.09-13.61,1.36-17.03,1.62v1.6c3.75.69,5.28,3.43,5.28,4.84v74.13h16.38V20.04c-.11-2.1-1.86-2.78-4.64-2.67h0Z"/>
  <path class="st0" d="M226.12,71.37h-13.87c9.76,11.02,2.39,24.63-9.76,25.16-12.15.53-19.72-14.41-10.89-23.83,8.83-9.43,20.98-7.5,25.29-7.5s10.96.33,13.28,0c2.32-.33,1.63-2.26,1.63-3.32V19.78c-.11-2.1-1.86-2.78-4.63-2.67-2.23.09-13.61,1.36-17.03,1.62v1.6c3.75.69,5.29,3.43,5.29,4.84v3.84h-17.51c1.19-3.78,1.48-6.46,1.53-7.03.2-2.19-.33-3.45-1.86-3.45h-44.75l4.12,5.58h21.44c2.92-.06,3.72,8.3-6.31,20.05-10.67,12.51-27.28,14.34-27.28,14.34l6.57,5.64c28.87-4.38,40.45-20.12,45.06-31.1l.88,1.16h18.11v10.68h-22.62l4.51,5.18h18.11v9.96s-.05,2.26-2.31,2.06c-8.45-.75-15.34,0-15.34,0-7.77.15-16.06,2.9-21.86,7.24-6.74,5.04-10.11,12.23-5.36,19.98,5.73,9.35,20.07,14.43,34.39,13.67,7.75-.41,16.23-2.18,21.64-6.7,15.4-12.88,5.18-24.89-.46-24.89h0Z"/>
  <path class="st0" d="M296.4,18.97h-44.74l4.12,5.93h21.44s3.12-.27,2.85,2.75c-.27,3.01-4.87,32.22-35.32,41.34l8.5,4.96s42.13-5.84,45.01-51.3c.15-2.33-.33-3.67-1.86-3.67h0Z"/>
  <path class="st0" d="M409.5,25.54v29.73h16.38V20.16c-.11-2.09-1.86-2.77-4.64-2.66-2.23.09-13.61,1.35-17.03,1.62v1.6c3.75.69,5.28,3.42,5.28,4.82h0Z"/>
  <path class="st0" d="M394.08,36.52c0-11.33-11.32-20.51-25.29-20.51s-25.29,9.18-25.29,20.51,11.32,20.51,25.29,20.51,25.29-9.19,25.29-20.51h0ZM359.14,36.52h0c0-8.4,4.32-15.21,9.64-15.21s9.64,6.81,9.64,15.21-4.32,15.21-9.64,15.21-9.64-6.81-9.64-15.21h0Z"/>
  <path class="st0" d="M372.5,90.29v-9.29h53.04v-19.98h-70.77l4.65,5.24h49.72v8.83h-53.77v16.33c0,4.25,5.78,7.1,15.87,7.17,10.09.07,54.97,0,54.97,0v-5.71h-51.05c-1.66,0-2.66-1.06-2.66-2.59h0Z"/>
  <path class="st0" d="M493.59,92.49v-28.37h21.81c4.48,0,8.93-.9,8.93-8.19V20.83c-.11-2.09-1.86-2.77-4.64-2.66-2.23.09-14.74,1.35-18.16,1.62v1.6c3.75.69,5.28,3.42,5.28,4.82v7.33h-38.39l4.51,5.51h33.88v16.89c0,1.17.19,2.98-3.21,2.98h-33.79c-2.96,0-3.68-1.76-3.65-2.82V21.76c-.11-2.09-1.86-2.77-4.63-2.66-2.23.09-14.74,1.35-18.16,1.62v1.6c3.75.69,5.28,3.42,5.28,4.82v29.73c0,3.43.83,7.26,6.47,7.26h21.14v28.37h-35.73l4.65,5.5h84.18v-5.5h-35.79Z"/>
</svg>