<?xml version="1.0" encoding="UTF-8"?>
<svg id="_xB7__xB9_ÀÌ_xBE_î_x5F_1" xmlns="http://www.w3.org/2000/svg" version="1.1" viewBox="0 0 1011.6 222.03">
  <!-- Generator: Adobe Illustrator 30.1.0, SVG Export Plug-In . SVG Version: 2.1.1 Build 136)  -->
  <defs>
    <style>
      .st0 {
        fill: #0079c1;
      }

      .st1 {
        fill: #5f6062;
      }

      .st2 {
        fill: #00b1b0;
      }
    </style>
  </defs>
  <g>
    <path class="st0" d="M99.45,164.77c26.58,17.94,68.26,24.16,107.12,2.77-23.95,40.5-72.14,62.74-120.43,51.63C26.39,205.44-10.9,145.86,2.85,86.13,16.13,28.39,72.23-8.38,129.92,1.64c0,0,22.63,3.94,34.26,23.95,4.38,7.22,7.86,15.6,10.15,25.07l.05.22c2.73,12.66,2.78,26.09-.32,39.54-4.77,20.77-16.49,40.18-31.73,50.6l-.08.09c5.29-5.48,9.19-12.42,11.03-20.36,5.37-23.35-9.19-46.62-32.53-51.98-23.33-5.37-46.6,9.2-51.99,32.53-1.55,6.76-1.75,13.47-.47,19.76,0,0,4.09,26.33,31.17,43.71Z"/>
    <path class="st2" d="M89.96,149.1c9.97,5.59,21.96,8.1,21.96,8.1,27.21,6.26,54.52-.55,75.24-16.1l.13-.12c9.25-6.55,17.43-14.89,24-24.96,4.19-6.43,7.49-13.2,9.91-20.15,3.06,27.69-2.78,43.34-2.78,43.34-7.66,9.12-15.67,14.7-15.67,14.7-20.65,15.25-47.31,21.25-74.29,15.04,0,0-23.32-4.9-38.49-19.84Z"/>
    <path class="st2" d="M117.21,153.95c42.53,3.42,82.48-27.43,92.35-66.29,0,0,2.98-12.25,3.07-21.32,0,0-8.86-23.2-32.95-42.62,9.35,18.37,12.54,39.99,7.56,61.63-7.56,32.82-31.96,57.38-61.98,66.64-2.51.77-5.35,1.47-8.1,1.9l.05.05Z"/>
  </g>
  <g>
    <polygon class="st1" points="405.38 45.57 405.38 125.61 387.05 125.61 387.05 45.57 405.38 45.57 405.38 45.57"/>
    <polygon class="st1" points="1011.6 45.55 1011.6 179.8 993.27 179.8 993.27 45.55 1011.6 45.55 1011.6 45.55"/>
    <polygon class="st1" points="534.67 45.52 534.67 71.15 507.91 71.15 507.91 86.8 534.67 86.8 534.67 125.61 552.99 125.61 552.99 45.52 534.67 45.52 534.67 45.52"/>
    <polygon class="st1" points="506.99 118.19 476.91 67.11 502.32 67.11 502.32 51.47 474.62 51.47 474.62 40.91 456.28 40.91 456.28 51.47 428.69 51.47 428.69 67.11 453.9 67.11 423.82 118.19 443.63 118.19 465.39 81.22 487.17 118.19 506.99 118.19 506.99 118.19"/>
    <polygon class="st1" points="985.65 140.76 938.92 49.97 938.74 49.97 918.59 49.97 918.4 49.97 871.66 140.76 891.99 140.76 928.67 69.53 965.34 140.76 985.65 140.76 985.65 140.76"/>
    <polygon class="st1" points="738.41 129.68 738.41 145.32 841.74 145.32 841.74 179.46 860.06 179.46 860.01 129.69 738.41 129.68 738.41 129.68"/>
    <polygon class="st1" points="307.02 132.42 288.69 132.42 288.69 176.46 406.24 176.47 406.24 160.83 307.02 160.83 307.02 132.42 307.02 132.42"/>
    <polygon class="st1" points="552.25 160.83 451.23 160.83 451.23 132.42 432.88 132.42 432.88 176.47 552.25 176.47 552.25 160.83 552.25 160.83"/>
    <polygon class="st1" points="813.02 46.41 813.02 62.09 841.74 62.09 841.74 87.62 813.02 87.62 813.02 103.26 841.74 103.26 841.74 122.25 860.06 122.25 860.06 46.41 813.02 46.41 813.02 46.41"/>
    <polygon class="st1" points="683.83 46.45 683.89 121.5 702.21 121.5 702.21 62.11 715.11 62.11 715.11 46.41 683.83 46.45 683.83 46.45"/>
    <polygon class="st1" points="575.26 63.49 645.84 63.49 645.84 98.3 616.41 98.3 616.41 75.62 598.07 75.62 598.07 98.3 572.02 98.3 572.02 113.94 664.16 113.9 664.16 47.83 575.26 47.86 575.26 63.49 575.26 63.49"/>
    <path class="st1" d="M315.93,45.81c-21.11,0-38.21,17.12-38.21,38.23s17.11,38.23,38.21,38.23,38.23-17.13,38.23-38.23-17.12-38.23-38.23-38.23ZM315.93,105.39c-11.79,0-21.36-9.56-21.36-21.34s9.57-21.35,21.36-21.35,21.36,9.56,21.36,21.35-9.57,21.34-21.36,21.34Z"/>
    <path class="st1" d="M766.84,43.89c-21.11,0-38.22,17.12-38.22,38.22s17.11,38.23,38.22,38.23,38.22-17.12,38.22-38.23-17.11-38.22-38.22-38.22ZM766.84,103.46c-11.8,0-21.35-9.57-21.35-21.35s9.56-21.35,21.35-21.35,21.35,9.56,21.35,21.35-9.57,21.35-21.35,21.35Z"/>
    <path class="st1" d="M670.7,104.27c-21.12,0-38.21,17.12-38.21,38.22s17.09,38.22,38.21,38.22,38.22-17.11,38.22-38.22-17.11-38.22-38.22-38.22ZM670.7,163.85c-11.79,0-21.35-9.56-21.35-21.35s9.57-21.36,21.35-21.36,21.37,9.56,21.37,21.36-9.57,21.35-21.37,21.35Z"/>
  </g>
</svg>