<?xml version="1.0" encoding="UTF-8"?>
<svg id="_레이어_1" data-name="레이어_1" xmlns="http://www.w3.org/2000/svg" version="1.1" viewBox="0 0 204.85 56.26">
  <!-- Generator: Adobe Illustrator 30.1.0, SVG Export Plug-In . SVG Version: 2.1.1 Build 136)  -->
  <defs>
    <style>
      .st0 {
        fill: #0099a8;
      }

      .st1 {
        fill: #3f3b3a;
      }

      .st2 {
        fill: #638c1c;
      }

      .st3 {
        fill: #062a30;
      }

      .st4 {
        fill: #e43d30;
      }
    </style>
  </defs>
  <path class="st1" d="M80.2,18.14c0,1.86-.58,3.35-1.73,4.47-1.15,1.12-2.71,1.68-4.65,1.68s-3.5-.56-4.67-1.68c-1.16-1.12-1.74-2.61-1.74-4.47s.58-3.33,1.74-4.46c1.16-1.12,2.72-1.68,4.67-1.68s3.5.56,4.65,1.68c1.15,1.12,1.73,2.61,1.73,4.46M76.6,18.14c0-.97-.26-1.76-.77-2.39-.51-.63-1.18-.95-2.02-.95s-1.51.31-2.02.95c-.51.63-.77,1.43-.77,2.39s.25,1.78.77,2.41c.51.63,1.18.95,2.02.95s1.51-.32,2.02-.95c.51-.63.77-1.44.77-2.41M87.11,33.86h-14.14c-1.16,0-1.74-.54-1.74-1.63v-6.09h3.74v4.62c0,.39.22.59.67.59h11.47v2.51ZM86.39,27.21h-3.74v-15.13h3.74v15.13Z"/>
  <path class="st1" d="M103.54,23.3l-1.32,2.23c-1.06-.32-2.11-.87-3.12-1.66-1.01-.79-1.74-1.62-2.17-2.51-.4.93-1.12,1.82-2.17,2.65-1.04.84-2.17,1.45-3.4,1.85l-1.37-2.3c3.28-1.28,4.92-3.39,4.92-6.32v-.52h-4.39v-2.49h4.41v-2.63h3.74v2.63h4.43v2.49h-4.38v.52c0,1.31.4,2.49,1.18,3.53.85,1.1,2.07,1.95,3.64,2.53M110.32,33.86h-14.18c-.62,0-1.06-.13-1.33-.39-.27-.26-.41-.69-.41-1.29v-5.73h3.74v4.28c0,.41.21.62.65.62h11.53v2.51ZM109.6,27.37h-3.74v-6.75h-3.97v-2.44h3.97v-6.11h3.74v15.3Z"/>
  <path class="st1" d="M135.11,20.6h-3.32v7.75h-3.73v-4.83c-.56.57-1.59.96-3.09,1.18-.99.16-3.17.24-6.52.24h-5.22v-2.49h3.16v-4.55h3.46v4.55c2.71,0,4.5-.05,5.38-.14.96-.11,1.64-.28,2.04-.52.53-.3.8-.8.8-1.52v-8.19h3.73v6.04h3.32v2.49ZM125.99,14.21l-.49,6.39h-3.3v-4.88c0-.57-.24-.85-.72-.85h-7.08v-2.49h9.89c1.21,0,1.77.61,1.69,1.83M132.65,34.17h-14.46c-1.13,0-1.69-.57-1.69-1.71v-5.49h3.74v4.12c0,.39.21.59.63.59h11.79v2.49Z"/>
  <path class="st1" d="M158.32,19.27h-3.32v5.4h-3.74v-2.04c-.55.55-1.58.95-3.08,1.19-.99.14-3.16.21-6.52.21h-5.22v-2.39h3.16v-4.08h3.46v4.08c2.7,0,4.5-.05,5.38-.14.96-.11,1.64-.28,2.04-.52.52-.3.79-.81.79-1.52v-7.39h3.74v4.74h3.32v2.46ZM149.18,14.11l-.44,5.85h-3.32v-4.43c0-.57-.24-.85-.72-.85h-7.08v-2.39h9.89c1.21,0,1.76.61,1.67,1.83M154.93,29.98c0,1.52-.57,2.74-1.72,3.68-1.14.94-2.74,1.41-4.78,1.41s-3.65-.47-4.83-1.42c-1.11-.93-1.67-2.15-1.67-3.67s.56-2.75,1.67-3.67c1.18-.96,2.79-1.44,4.83-1.44s3.64.47,4.78,1.41c1.15.94,1.72,2.17,1.72,3.7M151.29,29.98c0-.76-.25-1.35-.76-1.8-.51-.44-1.21-.66-2.09-.66s-1.58.22-2.1.66c-.52.44-.77,1.04-.77,1.8s.26,1.34.77,1.78c.52.44,1.22.66,2.1.66s1.58-.22,2.09-.66c.51-.45.76-1.04.76-1.78"/>
  <path class="st1" d="M180.78,24.15h-21.21v-2.49h6.75v-4.07h3.76v4.07h10.7v2.49ZM178.12,13.85l-.53,6.21h-3.58v-4.62c0-.57-.24-.85-.72-.85h-10.79v-2.49h14.16c1.09,0,1.57.58,1.46,1.75M176.84,30.05c0,1.56-.57,2.78-1.72,3.67-1.19.9-2.85,1.35-4.96,1.35s-3.76-.45-4.93-1.34c-1.17-.89-1.75-2.12-1.75-3.68s.58-2.77,1.75-3.67c1.17-.9,2.81-1.35,4.93-1.35s3.76.45,4.93,1.35c1.17.9,1.75,2.12,1.75,3.67M173.27,30.05c0-.77-.28-1.4-.85-1.88-.56-.48-1.32-.72-2.26-.72s-1.7.24-2.26.72c-.56.48-.85,1.11-.85,1.88s.29,1.42.85,1.9c.56.48,1.32.72,2.26.72s1.7-.24,2.26-.72c.56-.48.85-1.12.85-1.9"/>
  <path class="st1" d="M196.52,26.57l-1.71,2.18c-.98-.46-2.04-1.31-3.19-2.57-1.16-1.25-1.9-2.39-2.24-3.4-.26,1.03-.92,2.15-1.99,3.37-1.07,1.23-2.21,2.18-3.41,2.86l-1.79-2.13c1.95-1.36,3.33-2.96,4.13-4.81.72-1.64,1.09-3.74,1.09-6.3v-3.41h3.79v3.41c0,4.83,1.78,8.43,5.33,10.8M204.85,21.45h-3.6v12.77h-3.73V12.08h3.73v6.89h3.6v2.49Z"/>
  <path class="st1" d="M78.25,45.33c-.45-.03-.68-.25-.68-.68v-2.79c-.03-.57-.33-.84-.94-.84s-.91.28-.92.84v3.46h-1.38v-3.19c0-1.55.78-2.32,2.33-2.32s2.31.77,2.3,2.32v3.19h-.7Z"/>
  <path class="st1" d="M82.04,45.45c-1.64,0-2.48-.94-2.52-2.81,0-1.86.83-2.79,2.5-2.82,1.31,0,2.09.58,2.33,1.76h-1.49c-.17-.37-.45-.57-.88-.57-.72,0-1.08.54-1.08,1.62s.38,1.62,1.14,1.61c.31,0,.59-.13.82-.39.13-.13.29-.2.46-.2h1.02c-.25,1.11-1.05,1.82-2.31,1.79"/>
  <path class="st1" d="M87.59,41.04c-.81,0-1.16.68-1.16,1.51v2.78h-1.36v-6.97h.69c.45,0,.67.24.67.69v1.62c.7-.8,1.55-1.03,2.57-.66.76.28,1.12,1,1.08,2.18v3.15h-1.36v-2.78c0-.91-.35-1.51-1.13-1.51"/>
  <path class="st1" d="M93.19,45.45c-1.64-.05-2.46-1-2.46-2.85s.83-2.77,2.48-2.78c1.72,0,2.53,1.05,2.43,3.18h-3.51c.05.83.41,1.25,1.08,1.25.32,0,.62-.13.88-.39.12-.13.28-.2.46-.2h1.01c-.3,1.15-1.03,1.78-2.37,1.78M92.16,42.03h2.04c-.08-.72-.42-1.09-1.01-1.09s-.93.37-1.03,1.09"/>
  <path class="st1" d="M101.18,42.64c0,1.87-.83,2.81-2.47,2.81s-2.46-.94-2.46-2.81.82-2.82,2.46-2.82,2.47.93,2.47,2.82M97.63,42.64c.01,1.06.37,1.59,1.07,1.59s1.04-.56,1.05-1.63c0-1.06-.35-1.58-1.04-1.58s-1.08.54-1.08,1.62"/>
  <path class="st1" d="M105.76,45.33c-.45-.03-.68-.25-.68-.68v-2.79c-.04-.57-.34-.84-.95-.84s-.91.28-.92.84v3.46h-1.38v-3.19c0-1.55.78-2.32,2.33-2.32s2.31.77,2.3,2.32v3.19h-.7Z"/>
  <path class="st1" d="M108.71,38.36h4.83v1.24h-2.06v5.73h-1.43v-5.73h-2.06v-.49c0-.4.32-.75.71-.75"/>
  <path class="st1" d="M118.49,42.64c0,1.87-.83,2.81-2.47,2.81s-2.46-.94-2.46-2.81.82-2.82,2.46-2.82,2.47.93,2.47,2.82M114.94,42.64c.01,1.06.37,1.59,1.07,1.59s1.05-.56,1.06-1.63c0-1.06-.35-1.58-1.05-1.58s-1.08.54-1.08,1.62"/>
  <path class="st1" d="M123.71,43.17c0,.93-.24,1.55-.72,1.85-.48.28-1.02.42-1.6.42s-1.07-.15-1.54-.46c-.47-.3-.71-.89-.71-1.8v-3.26h1.37v3.54c0,.61.3.9.92.9s.92-.29.92-.9v-2.86c-.01-.45.21-.68.66-.68h.7v3.26Z"/>
  <path class="st1" d="M124.31,42.53c.04-1.75.97-2.62,2.79-2.62h.19v1.41h-.46c-.76,0-1.14.4-1.14,1.19v2.82h-1.39v-2.8Z"/>
  <path class="st1" d="M128.84,38.36c.45,0,.67.23.66.66v.41h-1.36v-1.07h.71ZM128.84,39.91c.44,0,.66.22.66.65v4.77h-1.36v-5.42h.71Z"/>
  <path class="st1" d="M132.63,44.34c.58,0,.86-.16.86-.51,0-.28-.47-.5-1.4-.67-1.2-.22-1.82-.75-1.83-1.6,0-1.17.92-1.72,2.16-1.74.7,0,1.25.15,1.66.46.4.32.62.76.65,1.32h-.86c-.32,0-.52-.12-.61-.34-.09-.24-.37-.37-.82-.37-.53,0-.8.14-.8.42s.35.49,1.06.62c.92.19,1.53.42,1.82.7.26.27.38.6.38.96,0,1.33-1.04,1.83-2.48,1.83-.76,0-1.33-.17-1.7-.48-.41-.31-.62-.78-.62-1.4h1.39c.03.59.46.8,1.13.8"/>
  <path class="st1" d="M136.89,41.86v3.46h-1.38v-3.19c0-1.55.78-2.32,2.33-2.32.7,0,1.23.15,1.62.46.39-.3.92-.44,1.62-.44,1.55,0,2.32.77,2.31,2.32v3.19h-.71c-.45-.03-.68-.25-.68-.68v-2.79c-.03-.57-.34-.84-.94-.84s-.91.28-.92.84v3.44h-1.37v-3.46c-.04-.57-.34-.84-.94-.84s-.92.28-.93.84"/>
  <path class="st1" d="M145.59,41.84c0-2.13,1.26-3.6,3.33-3.6s3.35,1.49,3.35,3.6-1.22,3.59-3.35,3.59-3.33-1.46-3.33-3.59M147.02,41.84c0,1.36.6,2.39,1.91,2.39s1.92-.99,1.92-2.39-.62-2.36-1.92-2.36-1.91,1-1.91,2.36"/>
  <path class="st1" d="M152.96,42.53c.04-1.75.97-2.62,2.79-2.62h.19v1.41h-.46c-.76,0-1.14.4-1.14,1.19v2.82h-1.38v-2.8Z"/>
  <path class="st1" d="M156.5,42.62c0-1.8.84-2.71,2.52-2.74,1.69-.01,2.55.79,2.55,2.42v3.21c0,1.36-.87,2.05-2.6,2.08-1.23,0-2.01-.58-2.33-1.72h1.5c.09.39.41.58.98.58.71,0,1.08-.42,1.08-1.26v-.55c-.35.54-.87.8-1.55.8-1.45,0-2.16-.95-2.16-2.81M160.21,42.67c.01-1.1-.37-1.64-1.15-1.64s-1.16.54-1.16,1.64c.03,1.04.4,1.57,1.14,1.57s1.13-.53,1.17-1.57"/>
  <path class="st1" d="M163.61,41.32h-1.36c.16-1,.87-1.5,2.12-1.5,1.5,0,2.25.49,2.28,1.5v1.85c0,1.5-.9,2.16-2.37,2.27-1.3.1-2.21-.51-2.21-1.7.03-1.3.98-1.65,2.35-1.79.58-.07.88-.25.88-.54-.03-.31-.32-.46-.88-.46-.48,0-.75.12-.82.38M165.33,43.1v-.5c-.32.13-.69.25-1.08.33-.55.11-.82.36-.82.76.03.43.26.64.69.64.76,0,1.22-.45,1.22-1.22"/>
  <path class="st1" d="M171.24,45.33c-.45-.03-.67-.25-.67-.68v-2.79c-.03-.57-.34-.84-.95-.84s-.91.28-.92.84v3.46h-1.38v-3.19c0-1.55.78-2.32,2.33-2.32s2.31.77,2.3,2.32v3.19h-.7Z"/>
  <path class="st1" d="M173.26,38.36c.45,0,.66.23.65.66v.41h-1.37v-1.07h.71ZM173.26,39.91c.44,0,.65.22.65.65v4.77h-1.37v-5.42h.71Z"/>
  <path class="st1" d="M174.85,40.34v-.44h4.44v1.16l-2.88,3.09h2.96v1.18h-4.68v-1.08l2.9-3.21h-2.04c-.4,0-.7-.3-.7-.7"/>
  <path class="st1" d="M181.5,41.32h-1.36c.16-1,.87-1.5,2.12-1.5,1.5,0,2.25.49,2.29,1.5v1.85c0,1.5-.9,2.16-2.37,2.27-1.3.1-2.2-.51-2.2-1.7.03-1.3.97-1.65,2.35-1.79.58-.07.88-.25.88-.54-.03-.31-.32-.46-.88-.46-.48,0-.75.12-.82.38M183.22,43.1v-.5c-.32.13-.69.25-1.09.33-.54.11-.82.36-.82.76.03.43.26.64.69.64.76,0,1.22-.45,1.22-1.22"/>
  <path class="st1" d="M186.91,40.88h-.14v3.01c0,.23.13.35.4.35h.42v1.03c-.44.04-.92.04-1.43,0-.51-.05-.76-.37-.75-.97v-5.93h.71c.36,0,.65.33.65.69v.86h.82v.3c0,.39-.3.68-.68.68"/>
  <path class="st1" d="M189.08,38.36c.45,0,.67.23.66.66v.41h-1.37v-1.07h.71ZM189.08,39.91c.44,0,.66.22.66.65v4.77h-1.37v-5.42h.71Z"/>
  <path class="st1" d="M195.4,42.64c0,1.87-.83,2.81-2.47,2.81s-2.46-.94-2.46-2.81.82-2.82,2.46-2.82,2.47.93,2.47,2.82M191.85,42.64c.01,1.06.37,1.59,1.07,1.59s1.05-.56,1.06-1.63c0-1.06-.35-1.58-1.04-1.58s-1.08.54-1.08,1.62"/>
  <path class="st1" d="M199.98,45.33c-.45-.03-.68-.25-.68-.68v-2.79c-.03-.57-.34-.84-.94-.84s-.91.28-.93.84v3.46h-1.38v-3.19c0-1.55.78-2.32,2.33-2.32s2.31.77,2.3,2.32v3.19h-.7Z"/>
  <path class="st1" d="M72.18,39.1c0-.49.24-.75.72-.75h.7v6.97h-1.43v-6.23Z"/>
  <path class="st4" d="M49.22,21.53c0-.32.84-.12.84,0s-.03,1.09,0,1.64c0,.18-.06,1.26.34,3,1.26-.63,2.31-1.42,3.14-2.15,1.26-1.1,2-2.06,3.07-4.76,1.21-3.07.52-4.07.37-6.23-.37-5.39-1.11-8.14-4.75-10.33C49.51,1.06,49.48.01,42.85,0c-5.19-.01-9.4,1.67-10.7,5.58-.93,2.8-2.63,4.45-2.51,7.36.5.25,1.17.49,1.55.55.51.08,1.47.55,1.56,1.26.08.72-1.47,1.01-2.19,1.01-.28,0-.47.09-.64.19.12.98.23,1.88.27,2.56.14,3.15,2.3,4.75,3,5.87.7,1.12,2.91,2.35,4.82,2.6,3.18.41,4.72.26,6.91.38,1.41.07,2.68-.13,3.82-.5.26-1.14.48-2.09.48-2.31v-3.02ZM44.39,22.31c-1.38-.07-2.35.02-4.35-.24-1.21-.16-2.6-.93-3.04-1.64-.44-.71-1.8-1.71-1.89-3.7-.04-.83-.27-2.15-.35-3.4-.13-1.91.98-2.95,1.58-4.75.82-2.47,3.48-3.53,6.75-3.52,4.17.01,4.2.67,5.92,1.7,2.29,1.38,2.76,3.11,2.99,6.51.09,1.36.53,2-.23,3.93-.67,1.7-1.14,2.31-1.94,3-1.16,1.01-2.96,2.24-5.44,2.11"/>
  <path class="st0" d="M6.03,9.74c1.87-.29,4.8.87,5.15.73.35-.14,1.3-1.56,2.27-3.59.41-.85,1.18-1.12,2-1.5.63-.29,1.27-.81,1.91-.76,1.17.09,3.01.25,4.38.94,2.07,1.04,4.39,2,5.37,2.65-.1-.6-.22-1.15-.41-1.63-.38-.98.19-2.21-.75-3.16C21.75-.86,14.24.9,8.84.9c-2.89,0-6.9,1.54-6.75,3.31C2.23,5.98-.08,8.48,0,11.06c.06,2.32.1,4.32.18,6.04.23-.97.6-1.99,1.4-2.75,1.43-1.38,3.31-4.43,4.45-4.6"/>
  <path class="st0" d="M24.62,15.82c-.64.11-2.3-.11-2.69-.95-.39-.83.61-1.36,1.22-1.44.61-.08,1.05-.44,2.05-.92.72-.34,1.66-.32,2.13-.28,0-1.17-.02-2.19-.1-3.09-.48.31-1.38.51-2.76.4-1.43-.11-3.62-.8-4.8-.69-1.48.14-2.95.66-3.5,1.8-.37.78-1.28,1.66-1.69,2.42-.9,1.68-2.24,1.47-4.18.82-1.53-.45-3.02.36-4.46.91-1.45.55-2.75,2.7-3.58,3.67-.76.88-1.42,1.32-1.87,1.4.05.43.1.84.17,1.23.41,2.44-.21,3.4.69,4.46,1.2,1.42,4.19,1.37,6.91,1.61,3.1.28,6.67-.13,10.72-.33,2.22-.11,4.18.58,5.12.11,1.02-.51,2.37-1.02,2.83-2.4.43-1.28.44-3.56.44-6.21,0-.68,0-1.32,0-1.95-1-.22-2.09-.68-2.67-.58M16.01,23.28c-.4.03-1,0-2.04.29-.48.13-1.64-.05-2.14-.28-.5-.24-.87-.11-1.53-.21-.66-.11-1.08-.64-1-.98.08-.34.5-.55.95-.66.45-.1.93-.16,1.35-.56.42-.4,1.27-.61,1.67-.61,1.48.03,2.37.89,2.94,1.02.65.14,2.77.31,2.79.99.04,1.06-2.58.99-2.98,1.01"/>
  <path class="st2" d="M19.96,51.62c-1.56,0-3.1.11-4.61-.2-1.8-.37-3.86-1.42-5.04-1.64-1.19-.22-1.93-.14-2.94-.22-1.18-.1-2.43-.34-4.2.11-1.21.31-2.06.71-2.54.96.23.67.47,1.25.51,1.89.09,1.51,1.38,2.9,3.27,3.38,1.85.47,3.73-.16,6.32-.11,4.18.08,6.69.11,10.83.11,2.35,0,3.78-1.77,4.58-3.27.37-.7.4-1.75.62-2.9.04-.19.08-.39.12-.58-.87.47-1.75.86-2.55,1.43-1.35.96-2.87,1.04-4.36,1.04"/>
  <path class="st2" d="M6.6,46.12c1.31,0,2.29.15,3.78.59,0,0,1.02.14,1.72.4.7.26,1.33.49,2,.68,2.46.69,4.37,1.19,6.54.96,1.2-.12,2.37-.51,3.67-1.58.97-.8,2.11-1.01,2.96-2.2h0c-.15-2.88-.37-5.82-.48-9.92-.11-4.02-1.69-4.21-5.37-4.21-1.47,0-3.99-1.57-6.87-1.42-4.47.24-7.5.2-9.68.62-1.31.25-2.27.84-3.08,1.64-.55.54-1.16.9-1.24,2.43-.1,1.92,0,5.26-.21,7.74-.17,2.02-.24,3.96-.24,5.67.65-.29,1.5-.63,2.47-.97,1.16-.4,2.57-.43,4.01-.42M3.56,43.18c.17-1.07,1.59-2.76,2.07-3.45.48-.69,1.17-1.86,1.59-2.14.41-.28,1.62-.86,2.28-.93.66-.07,1.17,0,1.55.28.38.28.9,1.14,1.14,1.28.24.14.66.49,1.04,1.07.38.58.54.54.71,1.23.17.69.25.61.6,1.6.13.36.07.72.34,1.31.28.58.19,1.22.08,1.74-.1.51-2.06.38-2.58.21-.52-.17-1.8-.76-2.11-.8-.31-.04-1.59-.24-2.24-.38-.66-.14-1.9-.04-2.6-.08-.64-.04-1.69.17-1.69.17,0,0-.29-.35-.17-1.1"/>
  <path class="st3" d="M50.7,31.71c-.08-.5-.31-1.41-.53-2.27-.25.01-.52.03-.79.04-.1.84-.2,1.67-.27,1.99-.17.72-.23,1.27-.21,1.92,0,.23-.01.45-.04.64.78-.3,1.5-.57,2.16-.82-.1-.39-.23-.93-.32-1.51"/>
  <path class="st3" d="M45.85,35.16c.52-.19,1.02-.38,1.52-.56.18-.83.48-2.35.51-3.32.01-.37.12-1,.26-1.73-1.12.06-2.31.13-3.39.13-1.95,0-3.62.22-5.36.16-2.75-.09-5.07-.13-6.49.18-1.58.34-1.14.99-1.58,1.75-.34.61-.91,1.98-1.13,3.16-.27,1.44-.18,3.48-.13,5.66.82-.3,6.47-2.38,8.54-3.05,1.08-.35,4.06-1.23,7.25-2.38"/>
  <path class="st3" d="M50.14,43.08c.22.28.81.93.81.93l.53-.99s.31-4.33.29-5.14c0-.81.06-.98.06-.98l-2.29-.46c-.21.06-.41.12-.62.18.12.79.47,2.87.69,3.69.28,1.03.29,2.49.51,2.77"/>
  <path class="st3" d="M36.08,43.22c.95.05,2.06-.04,3.28.14.41.06,1.58.64,2.05.8,1.05.35,2.13.74,3.41,1.18,1.43.48,2.78,1.33,4.53,1.74,1.39.32,2.42.31,4.03.5,1.15.13,2.29-.14,3.46-.22-.14-1.17-.35-2.37-.33-3.54.06-3.74.31-7.3.01-9.43-.46.1-1.25.3-2.57.74-.27.09-.6.2-.95.31.07.31.11.5.11.5,0,0,.21,2.13.19,3.08-.02.95.16.71.1,1.66-.07.95.05,2.72.05,2.72l1.95,1.13s.05.47-.14.89c-.19.42-2.74.61-2.74.61,0,0-2.19-.23-3.26-.61-1.07-.38-2.93-1.32-2.93-1.32,0,0-.09-.33,0-.71.09-.38,1.63-.9,1.63-.9,0,0-.49-1.89-.4-2.64.04-.4-.05-1.68-.14-2.8-1.65.47-3.1.86-3.69,1.02-1.45.37-2.59.46-5.03,1.1-2.07.55-4.25,1.14-5.3,1.46-1.87.58-2.98.83-3.32.9,0,.13,0,.26,0,.39,0,.89-.02,1.54-.04,2.11.69-.27,1.69-.64,2.56-.82,1.06-.21,2.12-.07,3.48,0"/>
  <path class="st3" d="M52.01,50.89c-1.61-.26-2.73-.63-4.09-.93-1.81-.39-3.11-1.42-4.59-1.92-1.72-.58-3.3-1.64-4.4-1.8-.93-.13-1.46.13-2.29.12-1.38-.01-2.91-.1-3.84.06-1.52.26-2.39.64-2.79.84,0,.2.02.4.02.62.08,1.86.81,4.19,2.03,5.16.61.49,2.57,2.49,3.39,2.79,2.02.76,3.55.23,6.26.2,3.18-.04,5.71,0,8.64-.46,1.35-.21,3.43.16,4.29-.67,1.14-1.09,1.79-2.67,2.21-4.51,0-.02,0-.04,0-.06-.04,0-.07,0-.11,0-1.44,0-3.32.78-4.73.55"/>
  <path class="st3" d="M52.32,32.74c.49-.17.9-.31,1.22-.39.98-.25,1.72-.46,2.26-.62-.32-.63-.72-.94-1.38-1.25-.62-.29-1.42-1.04-2.66-1.07-.14,0-.31,0-.48,0,.19.64.39,1.29.6,1.9.14.41.29.91.44,1.43"/>
</svg>