<?xml version="1.0" encoding="UTF-8"?>
<svg id="_레이어_1" data-name="레이어_1" xmlns="http://www.w3.org/2000/svg" version="1.1" viewBox="0 0 150 24.63">
  <!-- Generator: Adobe Illustrator 30.1.0, SVG Export Plug-In . SVG Version: 2.1.1 Build 136)  -->
  <defs>
    <style>
      .st0 {
        fill: #776c61;
      }

      .st1 {
        fill: #fcaf17;
      }
    </style>
  </defs>
  <path class="st0" d="M107.12,10.3h-5.78v-4.75h5.78v4.75ZM109.21,3.72h-9.96v8.41h9.96V3.72Z"/>
  <polygon class="st0" points="89.56 10.69 89.56 13.32 95.72 13.32 95.72 20.19 93.61 20.19 93.61 15.13 81.25 15.13 81.25 13.32 87.46 13.32 87.46 10.69 79.96 10.69 79.96 8.87 93.52 8.87 93.52 5.24 81.48 5.24 81.48 3.43 95.62 3.43 95.62 8.86 97.13 8.86 97.13 10.69 89.56 10.69"/>
  <polygon class="st0" points="114.36 20.12 101.14 20.12 101.14 13.94 103.25 13.94 103.25 18.3 114.36 18.3 114.36 20.12"/>
  <rect class="st0" x="112.1" y="3.32" width="2.09" height="11.04"/>
  <polygon class="st0" points="42.4 3.46 45.07 3.46 45.07 10.94 54.06 3.46 57.84 3.46 48.34 11.01 58.63 20.19 54.85 20.19 45.07 11.22 45.07 20.19 42.4 20.19 42.4 3.46"/>
  <path class="st0" d="M60.49,3.49h8.22c3.91,0,5.96,1.3,5.96,4.14,0,2.02-1.41,3.41-3.29,3.79v.07c2.69.32,3.96,2.09,3.96,4.08,0,2.5-1.83,4.66-6.37,4.66h-8.48V3.49ZM63.16,10.54h5.43c2.02,0,3.5-.76,3.5-2.55,0-1.55-.73-2.59-3.81-2.59h-5.12v5.14ZM63.16,18.32h5.26c3.27,0,4.13-1.28,4.13-2.9,0-1.92-1.33-2.99-4.27-2.99h-5.12v5.88Z"/>
  <polygon class="st0" points="128.53 20.17 130.64 20.17 130.64 9.15 132.78 9.15 132.78 7.32 130.64 7.32 130.64 3.37 128.53 3.37 128.53 20.17"/>
  <rect class="st0" x="133.94" y="17.23" width="16.06" height="1.8"/>
  <polygon class="st0" points="137.49 5.86 148.27 5.86 148.27 4.06 135.41 4.06 135.41 13.74 148.27 13.74 148.27 11.94 137.49 11.94 137.49 5.86"/>
  <polygon class="st0" points="124.27 14.71 126.39 14.71 126.39 3.99 116.36 3.99 116.36 5.81 124.27 5.81 124.27 14.71"/>
  <rect class="st0" x="116.36" y="7.92" width="9.31" height="1.8"/>
  <path class="st1" d="M34.02,12.64s-.3-.19-.3-.19c-1.02-1.02-2.44-1.46-4.34-1.35-1.58.1-2.83.72-3.79,1.31,0-.01,0-.03,0-.04,0-.49.06-1.03.11-1.55.06-.53.11-1.07.11-1.58s-.06-1.01-.24-1.44c-.05-.11-.14-.17-.27-.17-.51.01-1.51.36-1.75.57,0,0-.13.29-.13.29,0,.56-.13,2.14-.26,2.34,0,0-.07.19-.07.19-.21,2.26-.22,4.24-.02,5.94.02.17.35.43.6.52.28.1,1.15-.13,1.65-.32,0,0,.19-.03.19-.03.16-.02.25-.15.24-.33,0,0,.01-.49.01-.49.36-1.47,1.83-3.22,3.56-3.49.98-.15,1.75.09,2.36.76.08.12.26,1.17-.38,2.39-.48.9-1.44,1.66-2.7,2.13-1.2.45-2.51.64-4.14.58-.07-.04-1.52-1.03-1.52-1.03-1.29-.9-2.89-2.03-4.34-2.58-.25-.1-.71-.48-.99-.71l-.15-.12c-.84-.67-2.43-1.73-3.71-2.58,0,0-.58-.39-.69-.46,0-.05,0-.15,0-.15.04-.04.84-.52.84-.52,1.12-.66,1.65-.98,1.76-1.15-.02.03.15-.09.15-.09,0,0,2.79-1.58,2.79-1.58,2.68-1.47,5.71-3.14,7.3-4.79,0,0,.08-.25.08-.25l.04-.23c.1-.35.11-.62.02-.94-.02-.09-.11-.19-.22-.21-1.24-.12-2.85.62-4.31,1.99-.33.31-.61.46-.9.62l-.22.12c-1.61.91-5.24,3.16-7.14,4.38.12-2.04.5-4.95.97-7.37l-.05-.29s-.2-.37-.2-.37l-.15-.26h-.04c-.38-.2-.69-.12-.92-.07,0,0-.38.14-.38.14l-.5.18c-.1.02-.17.08-.21.18-.91,2.19-1.66,5.79-1.84,8.68-1.81-1.15-3.49-1.98-4.31-2.38h-.02s-.1-.03-.1-.03c-.29-.04-.66-.25-1-.46-.03-.02-.69-.45-.69-.45l-1.05-.67s-.28-.06-.28-.06c-.45.08-1.32.66-1.58,1.06-.04.05-.05.11-.05.17,0,.08.03.17.05.25l.05.21.05.13c.5.52,1.78,1.38,3.03,2.05l1.45.77,2.21,1.21s.38.3.38.3l.26.15s.03.02.05.03c-.59.39-4.03,2.69-4.03,2.69l-2.12,1.4c-.2.14-1.04.51-1.22.58-.46.19-.81.47-.95.79l-.06.12.06.08.16.12s.22.14.22.14l.23.16s.22.03.22.03c.37.02.92-.2,1.96-.65.95-.42,3.52-1.97,4.62-2.63l.47-.28c.19.02.41-.15.6-.29.22-.17.7-.47,1-.6,0,0,.18-.1.33-.18,0,.05,0,.13,0,.13.05,3.37.25,5.81.61,7.7v.03s.04.08.04.08c.18.27.39,1.06.57,1.77l.42,1.41s.12.13.12.13c.24.16.97.44,1.46.38h.12s.08-.18.08-.18c.04-.21.06-.42.06-.64,0-.26-.02-.54-.04-.89l-.03-.51c-.15-2.35-.31-5.74-.31-8,0-.06,0-.12,0-.18.4.25,2.15,1.35,2.15,1.35,2.97,1.93,7.46,4.84,10.17,5.61.14.04.29,0,.39-.09,0,0,.42-.27.42-.27l.08-.03c.16-.07.26-.34.28-.62,2.29-.12,5.48-1,7.18-3.14.66-.83.96-1.85.96-2.72,0-.71-.2-1.33-.56-1.67"/>
</svg>