<?xml version="1.0" encoding="UTF-8"?>
<svg id="Layer_1" xmlns="http://www.w3.org/2000/svg" version="1.1" viewBox="0 0 485.36 93.22">
  <!-- Generator: Adobe Illustrator 30.1.0, SVG Export Plug-In . SVG Version: 2.1.1 Build 136)  -->
  <defs>
    <style>
      .st0 {
        fill: #003863;
      }

      .st1 {
        fill: #e4032e;
      }

      .st2 {
        fill: #575756;
      }
    </style>
  </defs>
  <g>
    <g>
      <path class="st2" d="M134.43,68.6v14.37h-2.31v-11.57l-3.75,11.57h-2.22l-3.75-11.57v11.57h-2.31v-14.37h3.55l3.63,11.2,3.63-11.2h3.54Z"/>
      <path class="st2" d="M139.76,69.73c0,.4-.15.75-.44,1.04-.29.3-.65.44-1.06.44s-.77-.15-1.07-.44c-.3-.29-.44-.64-.44-1.04s.15-.77.44-1.06c.3-.29.65-.44,1.07-.44s.76.15,1.06.44c.3.3.44.65.44,1.06ZM137.1,82.97v-10.33h2.35v10.33h-2.35Z"/>
      <path class="st2" d="M144.36,77.78v5.19h-2.33v-10.33h2.25v1.38c.28-.48.68-.87,1.2-1.17.52-.3,1.08-.46,1.69-.46,1.22,0,2.2.42,2.94,1.25.74.83,1.1,1.94,1.1,3.33v6h-2.35v-5.4c0-1.1-.18-1.92-.54-2.44-.35-.53-.9-.8-1.65-.8-.38,0-.76.13-1.12.38-.37.25-.64.6-.84,1.04-.24.51-.35,1.18-.35,2.02Z"/>
      <path class="st2" d="M156.35,69.73c0,.4-.15.75-.44,1.04-.3.3-.65.44-1.06.44s-.77-.15-1.07-.44c-.3-.29-.44-.64-.44-1.04s.15-.77.44-1.06c.3-.29.65-.44,1.07-.44s.77.15,1.06.44c.29.3.44.65.44,1.06ZM153.7,82.97v-10.33h2.35v10.33h-2.35Z"/>
      <path class="st2" d="M157.96,81.05l1.47-1.5c.41.56.86,1,1.36,1.32.48.29,1,.43,1.54.43s.97-.11,1.33-.32c.36-.21.55-.5.55-.85s-.18-.64-.53-.84c-.35-.2-.77-.39-1.25-.57-.56-.18-1.13-.38-1.73-.6-.8-.29-1.38-.66-1.76-1.11-.37-.46-.56-.97-.56-1.55,0-.85.4-1.57,1.2-2.17.79-.6,1.74-.9,2.83-.9,1.15,0,2.1.28,2.83.83.37.29.66.65.88,1.07l-1.44,1.4c-.2-.33-.42-.6-.68-.8-.45-.4-1.02-.6-1.71-.6-.4,0-.75.1-1.04.3-.29.2-.44.44-.44.71,0,.3.16.55.49.76.33.21.82.41,1.46.6.24.07.5.15.81.25,1.01.33,1.76.75,2.28,1.28.51.52.77,1.14.77,1.87,0,.85-.41,1.59-1.23,2.22-.83.63-1.88.94-3.16.94-1.07,0-2.02-.25-2.85-.75-.55-.33-1.02-.8-1.42-1.42Z"/>
      <path class="st2" d="M171.58,69.32v3.32h2.25v1.9h-2.25v5.26c0,.5.12.83.37,1.02.24.19.57.28,1.02.28h.87v1.88h-1.42c-1.12,0-1.92-.25-2.43-.74-.5-.49-.76-1.23-.76-2.2v-5.49h-1.77v-1.9h1.77v-3.32h2.37Z"/>
      <path class="st2" d="M175.79,82.97v-10.33h2.2v1.55c.35-.51.77-.9,1.26-1.18.59-.36,1.29-.53,2.09-.53h.16v2.1h-.24c-.98,0-1.75.3-2.33.88-.54.58-.8,1.48-.8,2.7v4.8h-2.33Z"/>
      <path class="st2" d="M186.44,82.58l-4.06-9.94h2.43l2.8,7.05,2.78-7.05h2.41l-5.75,14.34h-2.39l1.77-4.39Z"/>
      <path class="st2" d="M204.25,83.22c-1.51,0-2.8-.52-3.86-1.56-1.07-1.04-1.6-2.32-1.6-3.84s.53-2.81,1.6-3.86c1.06-1.04,2.35-1.57,3.86-1.57s2.82.52,3.88,1.57c1.06,1.05,1.59,2.34,1.59,3.86s-.53,2.8-1.59,3.84c-1.06,1.04-2.36,1.56-3.88,1.56ZM204.25,81.28c.85,0,1.58-.32,2.2-.98.61-.65.91-1.48.91-2.48s-.31-1.82-.91-2.49c-.62-.67-1.35-1-2.2-1s-1.56.34-2.18,1c-.61.67-.92,1.49-.92,2.49s.31,1.83.92,2.48c.61.66,1.34.98,2.18.98Z"/>
      <path class="st2" d="M212.24,71.55c0-.96.27-1.69.81-2.2.54-.5,1.37-.75,2.49-.75h1.13v1.88h-.68c-.44,0-.78.09-1.02.27-.24.19-.36.53-.36,1.03v.86h2.06v1.9h-2.06v8.43h-2.37v-8.43h-1.78v-1.9h1.78v-1.09Z"/>
      <path class="st2" d="M231.59,81.2c1.5,0,2.87-.48,4.11-1.44l.99,1.75c-1.27,1.14-2.97,1.71-5.09,1.71s-3.83-.71-5.27-2.13c-1.43-1.43-2.15-3.18-2.15-5.29s.72-3.89,2.15-5.31c1.43-1.42,3.19-2.14,5.27-2.14s3.76.58,5.02,1.73l-.97,1.75c-1.22-.98-2.57-1.46-4.04-1.46-1.37,0-2.55.51-3.52,1.53-.99,1.06-1.48,2.36-1.48,3.9s.49,2.83,1.48,3.87c.97,1.02,2.15,1.53,3.52,1.53Z"/>
      <path class="st2" d="M245.43,77.84v-5.2h2.35v10.33h-2.25v-1.36c-.29.51-.67.89-1.15,1.15-.56.3-1.15.45-1.75.45-1.21,0-2.19-.41-2.92-1.24-.74-.82-1.1-1.94-1.1-3.34v-6h2.33v5.42c0,1.09.18,1.9.55,2.42.36.53.92.79,1.66.79.37,0,.75-.12,1.11-.38.37-.26.65-.6.85-1.03.21-.51.33-1.19.33-2.04Z"/>
      <path class="st2" d="M250.5,82.97v-14.37h2.33v14.37h-2.33Z"/>
      <path class="st2" d="M258.62,69.32v3.32h2.25v1.9h-2.25v5.26c0,.5.12.83.36,1.02.24.19.58.28,1.02.28h.87v1.88h-1.42c-1.11,0-1.92-.25-2.43-.74-.52-.49-.77-1.23-.77-2.2v-5.49h-1.78v-1.9h1.78v-3.32h2.37Z"/>
      <path class="st2" d="M269.65,77.84v-5.2h2.35v10.33h-2.25v-1.36c-.29.51-.67.89-1.15,1.15-.57.3-1.15.45-1.76.45-1.21,0-2.18-.41-2.92-1.24-.73-.82-1.1-1.94-1.1-3.34v-6h2.33v5.42c0,1.09.18,1.9.55,2.42.36.53.92.79,1.65.79.37,0,.75-.12,1.12-.38.37-.26.66-.6.85-1.03.22-.51.33-1.19.33-2.04Z"/>
      <path class="st2" d="M274.71,82.97v-10.33h2.21v1.55c.34-.51.76-.9,1.26-1.18.59-.36,1.29-.53,2.08-.53h.17v2.1h-.25c-.97,0-1.75.3-2.33.88-.53.58-.8,1.48-.8,2.7v4.8h-2.34Z"/>
      <path class="st2" d="M283.6,78.85c.13.63.43,1.15.88,1.54.67.61,1.54.91,2.62.91,1.14,0,2.21-.42,3.2-1.26l.7,1.73c-1.11.96-2.43,1.45-3.96,1.45-1.74,0-3.17-.5-4.26-1.49-1.09-.99-1.64-2.29-1.64-3.9s.49-2.89,1.46-3.91c.97-1.03,2.24-1.54,3.8-1.54s2.8.51,3.78,1.53c.99,1.02,1.47,2.27,1.47,3.77,0,.41-.03.79-.1,1.15h-7.96ZM283.55,76.99h5.74c-.03-.67-.31-1.29-.85-1.85-.53-.56-1.21-.83-2.04-.83s-1.56.3-2.11.91c-.4.45-.64,1.04-.74,1.77Z"/>
      <path class="st2" d="M294.32,83.88h-.1c-.41,0-.77-.15-1.07-.44-.3-.29-.46-.64-.46-1.05s.15-.78.46-1.07c.3-.29.66-.44,1.07-.44s.78.14,1.07.42c.34.33.52.79.52,1.38,0,1-.25,1.83-.74,2.49-.48.62-1.03,1.05-1.65,1.3l-.62-.68c.56-.36.98-.77,1.26-1.24.12-.21.21-.43.27-.68Z"/>
      <path class="st2" d="M302.91,80.06l1.58-1.6c.43.9.97,1.57,1.61,2,.7.46,1.41.7,2.12.7.76,0,1.4-.2,1.94-.6.54-.38.81-.89.81-1.53,0-.56-.27-1.02-.82-1.37-.54-.35-1.13-.65-1.76-.9-.63-.23-1.29-.49-1.98-.76-1.1-.4-1.88-.92-2.36-1.57-.47-.65-.71-1.33-.71-2.04,0-1.11.47-2.06,1.42-2.85.94-.79,2.11-1.19,3.48-1.19,1.44,0,2.62.37,3.53,1.12.47.36.79.75.97,1.19l-1.45,1.53c-.12-.25-.35-.53-.68-.84-.69-.63-1.53-.95-2.49-.95-.6,0-1.13.17-1.6.51-.46.33-.69.79-.69,1.35,0,.85.93,1.61,2.8,2.27.34.11.7.23,1.08.37,1.25.48,2.19,1.05,2.81,1.7.63.65.94,1.46.94,2.42,0,1.14-.49,2.12-1.46,2.95-.96.83-2.21,1.26-3.74,1.26-1.4,0-2.56-.32-3.48-.95-.89-.62-1.52-1.36-1.88-2.21Z"/>
      <path class="st2" d="M320.85,83.22c-1.27,0-2.32-.49-3.17-1.46v5.22h-2.33v-14.34h2.24v1.32c.9-1.04,1.98-1.57,3.26-1.57,1.5,0,2.72.54,3.66,1.62.94,1.08,1.41,2.35,1.41,3.81s-.47,2.72-1.41,3.79c-.95,1.07-2.16,1.61-3.66,1.61ZM317.69,78.48c.09.77.37,1.42.87,1.94.55.58,1.24.87,2.07.87.89,0,1.61-.32,2.13-.98.53-.65.79-1.48.79-2.48s-.26-1.82-.79-2.49c-.53-.67-1.24-1-2.13-1-.83,0-1.51.29-2.07.86-.5.53-.78,1.18-.87,1.96-.04.42-.04.87,0,1.32Z"/>
      <path class="st2" d="M332.64,83.22c-1.51,0-2.8-.52-3.87-1.56-1.07-1.04-1.6-2.32-1.6-3.84s.53-2.81,1.6-3.86c1.06-1.04,2.35-1.57,3.87-1.57s2.82.52,3.87,1.57c1.06,1.05,1.59,2.34,1.59,3.86s-.53,2.8-1.59,3.84c-1.06,1.04-2.35,1.56-3.87,1.56ZM332.64,81.28c.85,0,1.58-.32,2.2-.98.61-.65.92-1.48.92-2.48s-.31-1.82-.92-2.49c-.61-.67-1.35-1-2.2-1s-1.56.34-2.18,1c-.61.67-.91,1.49-.91,2.49s.31,1.83.91,2.48c.61.66,1.34.98,2.18.98Z"/>
      <path class="st2" d="M340.12,82.97v-10.33h2.21v1.55c.34-.51.76-.9,1.26-1.18.59-.36,1.29-.53,2.08-.53h.16v2.1h-.25c-.98,0-1.76.3-2.33.88-.54.58-.81,1.48-.81,2.7v4.8h-2.33Z"/>
      <path class="st2" d="M351.21,69.32v3.32h2.25v1.9h-2.25v5.26c0,.5.12.83.36,1.02.24.19.58.28,1.02.28h.86v1.88h-1.42c-1.11,0-1.93-.25-2.44-.74-.51-.49-.76-1.23-.76-2.2v-5.49h-1.77v-1.9h1.77v-3.32h2.37Z"/>
      <path class="st2" d="M354.75,81.05l1.47-1.5c.41.56.87,1,1.36,1.32.48.29.99.43,1.54.43s.97-.11,1.33-.32c.36-.21.55-.5.55-.85s-.18-.64-.53-.84c-.35-.2-.76-.39-1.25-.57-.56-.18-1.14-.38-1.73-.6-.8-.29-1.38-.66-1.75-1.11-.37-.46-.56-.97-.56-1.55,0-.85.4-1.57,1.2-2.17.8-.6,1.74-.9,2.82-.9,1.16,0,2.1.28,2.83.83.37.29.66.65.89,1.07l-1.44,1.4c-.19-.33-.42-.6-.68-.8-.45-.4-1.03-.6-1.72-.6-.4,0-.75.1-1.04.3-.29.2-.44.44-.44.71,0,.3.17.55.5.76.33.21.81.41,1.46.6.23.07.5.15.81.25,1,.33,1.76.75,2.27,1.28.52.52.78,1.14.78,1.87,0,.85-.41,1.59-1.24,2.22-.83.63-1.88.94-3.16.94-1.07,0-2.02-.25-2.84-.75-.56-.33-1.03-.8-1.43-1.42Z"/>
    </g>
    <g>
      <path class="st2" d="M376.35,76.31h2.43c0-.68-.26-1.18-.78-1.52-.53-.34-1.28-.5-2.27-.5h-.06c-.93,0-1.93.22-2.97.66l-.6-1.83c1.09-.47,2.28-.71,3.58-.72h.05c1.73,0,3.06.33,3.99,1,.93.67,1.4,1.73,1.4,3.19v6.39h-2.23v-1.13c-.44.44-.98.78-1.62,1.02-.63.24-1.29.36-1.95.36-1.24,0-2.24-.33-3-.98-.77-.65-1.15-1.45-1.15-2.4,0-1.06.48-1.93,1.43-2.62.88-.61,2.13-.91,3.75-.91ZM375.7,81.37c.61,0,1.2-.15,1.79-.45.6-.29,1.02-.63,1.28-1.02v-1.75h-2.08c-1.18,0-2.01.15-2.47.45-.45.34-.68.76-.68,1.24,0,.44.19.8.58,1.09.38.29.91.43,1.59.43Z"/>
      <path class="st2" d="M386.16,77.78v5.19h-2.33v-10.33h2.25v1.38c.27-.48.67-.87,1.2-1.18.52-.3,1.08-.45,1.69-.45,1.22,0,2.2.42,2.94,1.25.73.83,1.1,1.94,1.1,3.33v6h-2.36v-5.4c0-1.1-.18-1.91-.54-2.44-.35-.53-.9-.79-1.64-.79-.38,0-.76.13-1.13.38-.35.25-.64.6-.83,1.04-.23.51-.35,1.18-.35,2.02Z"/>
      <path class="st2" d="M400.07,72.39c1.23,0,2.27.5,3.15,1.49v-5.28h2.35v14.37h-2.27v-1.3c-.86,1.03-1.94,1.54-3.23,1.54-1.51,0-2.74-.53-3.67-1.61-.93-1.07-1.4-2.33-1.4-3.79s.47-2.73,1.4-3.81c.93-1.08,2.16-1.62,3.67-1.62ZM403.21,78.48c.04-.45.04-.89,0-1.32-.08-.79-.37-1.44-.87-1.96-.55-.58-1.23-.87-2.04-.87-.9,0-1.63.33-2.15,1-.52.67-.79,1.5-.79,2.49s.26,1.83.79,2.48c.52.65,1.24.98,2.15.98.81,0,1.49-.29,2.04-.87.5-.52.78-1.17.87-1.94Z"/>
      <path class="st2" d="M419.8,70.62v12.35h-2.42v-12.35h-4.39v-2.02h11.19v2.02h-4.38Z"/>
      <path class="st2" d="M428.99,83.22c-1.51,0-2.8-.52-3.86-1.56-1.07-1.03-1.6-2.32-1.6-3.84s.54-2.81,1.6-3.86c1.06-1.04,2.36-1.57,3.86-1.57s2.82.52,3.88,1.57c1.05,1.04,1.58,2.33,1.58,3.86s-.53,2.81-1.58,3.84c-1.06,1.04-2.36,1.56-3.88,1.56ZM428.99,81.28c.85,0,1.58-.33,2.2-.98.61-.66.92-1.48.92-2.48s-.31-1.82-.92-2.49c-.62-.67-1.35-1-2.2-1s-1.56.33-2.17,1c-.61.67-.92,1.5-.92,2.49s.31,1.83.92,2.48c.61.65,1.34.98,2.17.98Z"/>
      <path class="st2" d="M443.29,77.84v-5.2h2.35v10.33h-2.24v-1.36c-.29.51-.68.89-1.16,1.15-.56.3-1.14.45-1.75.45-1.21,0-2.18-.41-2.92-1.23-.74-.83-1.11-1.94-1.11-3.34v-6h2.34v5.42c0,1.08.18,1.89.55,2.42.37.53.92.79,1.65.79.37,0,.75-.12,1.12-.38.37-.25.65-.59.84-1.02.23-.51.33-1.19.33-2.04Z"/>
      <path class="st2" d="M448.36,82.97v-10.33h2.21v1.55c.34-.51.76-.9,1.26-1.17.59-.36,1.29-.54,2.08-.54h.17v2.11h-.25c-.98,0-1.75.3-2.33.89-.54.58-.81,1.47-.81,2.7v4.8h-2.33Z"/>
      <path class="st2" d="M458.44,69.73c0,.4-.15.75-.45,1.04-.29.29-.64.44-1.06.44s-.77-.15-1.06-.44c-.3-.3-.45-.64-.45-1.04s.15-.77.45-1.06c.29-.29.64-.44,1.06-.44s.76.15,1.06.44c.3.3.45.65.45,1.06ZM455.78,82.97v-10.33h2.35v10.33h-2.35Z"/>
      <path class="st2" d="M460.04,81.05l1.46-1.51c.41.56.87,1,1.36,1.32.48.29,1,.43,1.54.43s.97-.11,1.33-.32c.36-.21.54-.5.54-.86s-.18-.64-.53-.84c-.35-.2-.77-.39-1.25-.57-.57-.18-1.14-.38-1.73-.6-.8-.29-1.38-.66-1.75-1.11-.37-.45-.56-.97-.56-1.54,0-.85.4-1.58,1.19-2.18.8-.6,1.74-.9,2.83-.9,1.15,0,2.09.27,2.82.83.37.29.66.65.89,1.07l-1.45,1.4c-.19-.33-.42-.6-.68-.8-.46-.4-1.03-.6-1.71-.6-.39,0-.74.1-1.04.3-.29.2-.45.44-.45.71,0,.3.17.56.5.76.32.2.82.4,1.46.6.24.07.5.15.81.25,1,.33,1.76.76,2.28,1.28.52.52.78,1.15.78,1.88,0,.85-.41,1.59-1.24,2.22-.83.63-1.87.94-3.15.94-1.07,0-2.03-.25-2.85-.74-.55-.33-1.03-.8-1.43-1.42Z"/>
      <path class="st2" d="M481.53,72.39c1.21,0,2.15.42,2.82,1.25.68.83,1.01,1.94,1.01,3.33v6h-2.31v-5.4c0-1.1-.15-1.91-.45-2.44-.29-.53-.78-.79-1.45-.79-.4,0-.74.11-1.04.34-.3.22-.53.56-.71,1-.19.46-.29,1.09-.29,1.9v5.4h-2.31v-5.4c0-1.1-.15-1.91-.45-2.44-.3-.53-.79-.79-1.45-.79-.4,0-.74.11-1.02.34-.28.22-.53.56-.71,1-.21.51-.3,1.19-.3,2.02v-.02,5.3h-2.31v-10.33h2.19v1.38c.58-1.09,1.47-1.63,2.67-1.63,1.3,0,2.24.62,2.85,1.88.36-.62.79-1.08,1.29-1.4.5-.31,1.16-.47,1.97-.47Z"/>
    </g>
  </g>
  <g>
    <path class="st0" d="M71.97,44.49c-8.1-5.5-18.47-3.26-23.91,5.02-4.55,6.91-11.41,7.77-14.07,7.77-8.66,0-14.59-6.09-16.35-12.4h0c-.01-.06-.03-.12-.04-.18-.02-.07-.04-.14-.05-.21-.69-2.63-.86-3.89-.86-6.68,0-15.08,15.47-31.86,37.75-31.86s35.87,17.37,39.22,27.02c-.05-.17-.11-.34-.17-.51C87.01,13.58,69.11,0,48.03,0,21.51,0,0,21.5,0,48.04c0,23.71,17.1,44.01,40.83,44.01,18.92,0,31.64-10.61,37.47-25.23,3.2-8,.93-17.4-6.33-22.33Z"/>
    <path class="st1" d="M93.95,33.9c-2.81-9.42-15.95-27.95-39.52-27.95-22.28,0-37.75,16.78-37.75,31.86,0,2.8.17,4.05.86,6.68-.29-1.15-.44-2.3-.44-3.43,0-15.7,15.72-26.58,31.88-26.58,21.87,0,39.61,17.74,39.61,39.61,0,17.15-9.86,31.99-24.21,39.12h0c18.48-6.68,31.68-24.38,31.68-45.17,0-4.92-.66-9.26-2.11-14.13Z"/>
  </g>
  <g>
    <path class="st2" d="M157.64,33.48v4.49h-16.03v6.32h-5.18v-6.32h-16.35v-4.49h37.56ZM123.1,29.31v-15.71h31.52v15.71h-31.52ZM128.19,40.85v7.93h26.93v4.49h-32.02v-12.41h5.09ZM149.58,17.95h-21.48v7.15h21.48v-7.15Z"/>
    <path class="st2" d="M188.54,49.88h-26.79v-4.44h10.77v-5.09c-.49-.12-.95-.27-1.38-.46-1.22-.49-2.29-1.14-3.21-1.97-.91-.86-1.63-1.84-2.15-2.96-.52-1.12-.78-2.3-.78-3.55s.26-2.43.78-3.53c.52-1.1,1.23-2.08,2.15-2.93.92-.85,1.98-1.52,3.18-1.99,1.21-.47,2.5-.71,3.87-.71s2.66.24,3.85.71c1.2.47,2.23,1.14,3.12,1.99.91.86,1.64,1.83,2.17,2.93.54,1.09.8,2.28.8,3.53s-.27,2.43-.8,3.55c-.53,1.12-1.26,2.1-2.17,2.96-.89.82-1.92,1.48-3.12,1.97-.49.22-.99.38-1.51.5v5.04h11.22v4.44ZM172.15,17.17v-4.35h5.5v4.35h9.94v4.35h-25.37v-4.35h9.94ZM179.98,31.38c0-1.35-.49-2.5-1.47-3.46-.98-.96-2.17-1.45-3.57-1.45s-2.6.48-3.58,1.45c-.97.96-1.46,2.11-1.46,3.46s.5,2.5,1.46,3.48c.98.98,2.17,1.47,3.58,1.47s2.59-.49,3.57-1.47c.98-.98,1.47-2.14,1.47-3.48ZM196.47,53.96h-5.04V13.1h5.04v17.72h5.22v4.9h-5.22v18.24Z"/>
    <path class="st2" d="M203.94,21.52v-4.35h8.66v-4.35h5.36v4.35h8.16v4.35h-9.26l9.71,25.7-4.44,1.51-6.82-18.51-6.82,18.83-4.58-1.47,9.76-26.07h-9.71ZM229.49,13.14h4.72v40.59h-4.72v-19.75h-5.31v-4.62h5.31V13.14ZM238.06,13.1h4.9v40.86h-4.9V13.1Z"/>
    <path class="st2" d="M282.49,41.45v12.6h-5.09v-8.25h-27.39v-4.35h6.5l.05-4.77h-8.61v-4.4h37.56v4.4h-8.66v4.77h5.64ZM276.81,21.48c0,1.28-.27,2.49-.82,3.62-.55,1.13-1.27,2.14-2.15,3.02-.92.82-1.98,1.49-3.21,1.99-1.22.5-2.52.75-3.89.75s-2.68-.25-3.92-.75c-1.24-.51-2.31-1.17-3.23-1.99-.88-.88-1.6-1.89-2.15-3.02-.55-1.13-.83-2.34-.83-3.62s.28-2.49.83-3.62c.55-1.13,1.27-2.14,2.15-3.02.91-.86,1.99-1.54,3.23-2.04,1.23-.5,2.54-.75,3.92-.75s2.67.25,3.89.75c1.22.5,2.29,1.19,3.21,2.04.88.88,1.6,1.9,2.15,3.02.55,1.13.82,2.34.82,3.62ZM261.19,41.45h11v-4.77h-10.95l-.05,4.77ZM271.82,21.48c0-1.38-.5-2.55-1.49-3.51-.99-.96-2.19-1.44-3.59-1.44s-2.61.48-3.62,1.44c-1.01.96-1.52,2.13-1.52,3.51s.51,2.55,1.52,3.53c1.01.98,2.21,1.47,3.62,1.47s2.6-.49,3.59-1.47c.99-.98,1.49-2.15,1.49-3.53Z"/>
    <path class="st2" d="M315.15,32.66v4.44h-24.41v-4.44h8.24v-8.89h4.81v8.89h11.36ZM308.78,28.9v-10.44h-16.9v-4.54h21.85v14.98h-4.95ZM297.65,40.35v8.3h28.26v4.49h-33.35v-12.78h5.08ZM324.81,38.52h-5.08V13.1h5.08v9.99h5.22v4.85h-5.22v10.58Z"/>
    <path class="st2" d="M341.76,30.64v-7.97h4.81v7.97h11.36v4.26h-24.41v-4.26h8.25ZM351.56,26.98v-8.57h-16.91v-4.49h21.85v13.06h-4.94ZM363.93,45.85c0,1.32-.28,2.53-.82,3.64-.55,1.12-1.28,2.12-2.2,3-.89.86-1.95,1.54-3.16,2.04-1.22.51-2.54.76-3.94.76s-2.72-.25-3.94-.76c-1.22-.5-2.3-1.18-3.21-2.04-.92-.88-1.64-1.88-2.17-3-.53-1.11-.81-2.32-.81-3.64s.27-2.54.81-3.69c.53-1.14,1.26-2.16,2.17-3.04.92-.83,1.99-1.49,3.21-1.99,1.22-.5,2.53-.75,3.94-.75s2.72.25,3.94.75c1.21.51,2.27,1.17,3.16,1.99.91.88,1.65,1.9,2.2,3.04.55,1.15.82,2.38.82,3.69ZM358.93,45.8c0-1.4-.5-2.6-1.51-3.59-1.01-.99-2.22-1.49-3.62-1.49s-2.62.49-3.64,1.49c-1.02.99-1.53,2.19-1.53,3.59s.51,2.59,1.53,3.55c1.02.96,2.24,1.44,3.64,1.44s2.61-.48,3.62-1.44,1.51-2.14,1.51-3.55ZM367.59,35.59h-5.08V13.1h5.08v8.34h5.22v4.76h-5.22v9.39Z"/>
    <path class="st2" d="M375.59,38.9h37.56v4.49h-16.26v10.53h-5.08v-10.53h-16.21v-4.49ZM383.61,18.93h21.49v-5.17h5.03v19.65h-31.51V13.75h4.99v5.17ZM405.09,23.33h-21.49v5.63h21.49v-5.63Z"/>
  </g>
</svg>