<svg width="1914" height="468" viewBox="0 0 1914 468" fill="none" xmlns="http://www.w3.org/2000/svg">
<g filter="url(#filter0_d_2025_585)">
<path d="M1769.46 74.6182V469.963H1694.95V74.6182H1769.46ZM1684.89 74.6182L1614.41 226.461V74.6182H1684.89ZM1850 226.461L1779.52 74.6182H1850V226.461Z" fill="#ECECEC"/>
<path d="M1498.63 75V470.344H1424V75H1498.63ZM1523.85 299.728L1624.2 470.344H1523.85V299.728ZM1523.85 288.133V75C1575.79 75 1611.09 119.725 1611.09 181.566C1611.09 243.408 1575.79 288.133 1523.85 288.133Z" fill="#ECECEC"/>
<path d="M1329.72 472.996V71.5848C1368.96 71.5848 1417.24 111.394 1417.24 271.737C1417.24 433.187 1368.96 472.996 1329.72 472.996ZM1304.57 71.5848V472.996C1265.33 472.996 1217.04 433.187 1217.04 271.737C1217.04 111.394 1265.33 71.5848 1304.57 71.5848Z" fill="#ECECEC"/>
<path d="M1126.78 344.071V74.6182C1166.11 75.1703 1211.99 105.539 1211.99 209.344C1211.99 313.15 1166.11 344.071 1126.78 344.071ZM1101.57 74.6182V469.963H1026.96V74.6182H1101.57Z" fill="#ECECEC"/>
<path d="M917.538 469.963H841.922V161.096C841.922 106.395 869.144 72.1374 917.538 71.5848V304.202H942.24V71.5848C990.634 72.1374 1017.86 106.395 1017.86 161.096V469.963H942.24V329.619H917.538V469.963Z" fill="#ECECEC"/>
<path d="M753.955 74.6182V469.963H679.133V74.6182H753.955ZM669.022 74.6182L598.244 226.461V74.6182H669.022ZM834.844 226.461L764.067 74.6182H834.844V226.461Z" fill="#ECECEC"/>
<path d="M592.178 397.078L493.345 74.6182H592.178V397.078ZM397.033 150.816L494.858 469.963H397.033V150.816ZM592.178 469.963H518.557L397.033 74.6182H470.654L592.178 469.963Z" fill="#ECECEC"/>
<path d="M296.477 74.6182V469.963H222.111V74.6182H296.477ZM360.291 187.81L361.799 335.236L306.527 260.695L360.291 187.81ZM306.527 469.963L386.922 334.684V469.963H306.527ZM383.907 194.988L306.527 74.6182H383.907V194.988Z" fill="#ECECEC"/>
<path d="M129.827 344.071V74.6182C169.153 75.1703 215.033 105.539 215.033 209.344C215.033 313.15 169.153 344.071 129.827 344.071ZM104.618 74.6182V469.963H30V74.6182H104.618Z" fill="#ECECEC"/>
<g clip-path="url(#clip0_2025_585)">
<path d="M1869.23 30.7794C1873.89 30.2424 1882.97 36.2514 1886.86 38.9641C1890.74 41.6712 1901.37 49.8578 1902.56 54.2094C1903.77 58.6112 1900.15 69.5534 1898.55 74.0765C1896.92 78.6871 1893.63 87.4909 1890.61 91.1171C1888.52 93.6229 1882.95 94.3221 1879.81 94.6726C1873.38 95.3904 1856.02 95.7371 1850.69 92.288C1847.46 90.198 1843.44 79.9344 1842.05 76.1273C1840.19 70.9983 1836.27 58.8927 1837.67 53.8421C1839.26 48.1071 1851.5 39.5271 1856.61 36.4285C1859.78 34.5063 1865.63 31.1951 1869.23 30.7794ZM1896.8 54.0956C1895.12 52.3636 1890.77 53.4617 1888.63 53.9036C1885.86 54.476 1882.75 55.658 1879.97 55.8724C1876.46 56.1427 1875.71 54.9495 1875.26 51.6775C1874.74 47.7921 1875.76 39.4787 1873 36.6C1871.74 35.2838 1869.24 35.1999 1867.8 36.2383C1863.81 39.1039 1866.55 49.8224 1864.32 54.1982C1862.89 56.9985 1858.76 55.7065 1856.33 55.1341C1853.13 54.3809 1848.38 52.4195 1845.18 52.9565C1843.07 53.3088 1842.19 55.4063 1843.01 57.2763C1844.58 60.8877 1854.21 63.2443 1857.65 65.3716C1860.28 66.9917 1860.24 68.1738 1858.99 70.8771C1857.3 74.5649 1852.07 80.5422 1852.14 84.4948C1852.17 86.2249 1853.4 87.6009 1855.2 87.4088C1858.31 87.0788 1863.77 78.771 1866.48 76.4946C1869.18 74.2182 1870.56 74.0485 1873.29 76.3995C1875.95 78.6965 1881.27 87.0938 1884.29 87.5785C1886.94 88.0017 1887.96 85.9136 1887.73 83.5849C1887.45 80.7026 1883.96 76.5188 1882.44 73.9646C1879.93 69.7697 1878.61 67.016 1883.69 64.2548C1886.88 62.5246 1895.46 60.4271 1897.02 57.4441C1897.56 56.4131 1897.68 54.9961 1896.81 54.0956H1896.8Z" fill="#ECECEC"/>
</g>
</g>
<defs>
<filter id="filter0_d_2025_585" x="0" y="0" width="1933" height="503" filterUnits="userSpaceOnUse" color-interpolation-filters="sRGB">
<feFlood flood-opacity="0" result="BackgroundImageFix"/>
<feColorMatrix in="SourceAlpha" type="matrix" values="0 0 0 0 0 0 0 0 0 0 0 0 0 0 0 0 0 0 127 0" result="hardAlpha"/>
<feOffset/>
<feGaussianBlur stdDeviation="15"/>
<feComposite in2="hardAlpha" operator="out"/>
<feColorMatrix type="matrix" values="0 0 0 0 0.0666667 0 0 0 0 0.0666667 0 0 0 0 0.0666667 0 0 0 0.6 0"/>
<feBlend mode="normal" in2="BackgroundImageFix" result="effect1_dropShadow_2025_585"/>
<feBlend mode="normal" in="SourceGraphic" in2="effect1_dropShadow_2025_585" result="shape"/>
</filter>
<clipPath id="clip0_2025_585">
<rect width="66" height="66" fill="white" transform="translate(1837 30)"/>
</clipPath>
</defs>
</svg>
