<svg width="9" height="63" viewBox="0 0 9 63" fill="none" xmlns="http://www.w3.org/2000/svg">
<path d="M7.37109 -2.46047e-07L8.48437 -1.97384e-07L8.48437 6.57422L7.37109 6.57422L7.37109 3.9375L-1.91579e-07 3.9375L-1.35232e-07 2.64844L7.37109 2.64844L7.37109 -2.46047e-07ZM8.48437 8.87578L-4.07438e-07 8.87578L-3.51091e-07 7.58672L8.48437 7.58672L8.48437 8.87578ZM8.48437 10.2984L8.48437 11.8687L1.91016 14.5523L1.91016 14.6578L8.48437 17.3414L8.48437 18.9117L-8.46123e-07 18.9117L-7.92337e-07 17.6812L6.12891 17.6812L6.12891 17.5992L0.0117181 15.1148L0.0117181 14.0953L6.14062 11.5992L6.14062 11.5289L-5.2341e-07 11.5289L-4.69624e-07 10.2984L8.48437 10.2984ZM-9.08821e-07 20.3461L8.48437 20.3461L8.48437 25.6664L7.37109 25.6664L7.37109 21.6352L4.80469 21.6352L4.80469 25.3852L3.70312 25.3852L3.70312 21.6352L1.11328 21.6352L1.11328 25.7133L-1.14343e-06 25.7133L-9.08821e-07 20.3461ZM7.37109 29.1562L8.48437 29.1562L8.48437 35.7305L7.37109 35.7305L7.37109 33.0937L-1.46604e-06 33.0937L-1.40969e-06 31.8047L7.37109 31.8047L7.37109 29.1562ZM-1.61275e-06 36.45L-1.55281e-06 35.0789L8.48437 38.1258L8.48437 39.6141L-1.88475e-06 42.6727L-1.82481e-06 41.3016L2.23828 40.5281L2.23828 37.2234L-1.61275e-06 36.45ZM3.3164 37.5984L3.3164 40.1531L6.9375 38.8992L6.9375 38.8406L3.3164 37.5984ZM-1.91876e-06 43.4508L8.48437 43.4508L8.48437 46.5563C8.48437 48.3609 7.51172 49.2398 6.25781 49.2398C5.20312 49.2398 4.66406 48.5953 4.46484 47.8102L4.38281 47.8102C4.33594 48.6539 3.59765 49.568 2.28515 49.568C0.984373 49.568 -2.14722e-06 48.6773 -2.06065e-06 46.6969L-1.91876e-06 43.4508ZM1.10156 46.5797C1.10156 47.7984 1.64062 48.2906 2.34375 48.2906C3.15234 48.2906 3.80859 47.6461 3.80859 46.6266L3.80859 44.7398L1.10156 44.7398L1.10156 46.5797ZM4.8164 46.4508C4.8164 47.3063 5.34375 47.9742 6.15234 47.9742C6.85547 47.9742 7.38281 47.4938 7.38281 46.4742L7.38281 44.7398L4.8164 44.7398L4.8164 46.4508ZM-2.23348e-06 50.6508L8.48437 50.6508L8.48437 51.9398L1.11328 51.9398L1.11328 55.7719L-2.45733e-06 55.7719L-2.23348e-06 50.6508ZM-2.5021e-06 56.7961L8.48437 56.7961L8.48437 62.1164L7.37109 62.1164L7.37109 58.0852L4.80468 58.0852L4.80468 61.8352L3.70312 61.8352L3.70312 58.0852L1.11328 58.0852L1.11328 62.1633L-2.73671e-06 62.1633L-2.5021e-06 56.7961Z" fill="white"/>
</svg>
